#!OML:ASF F:\VICON\USERDATA\INSTALL\rory3\rory3.ASF
:FULLY-SPECIFIED
:DEGREES
670
root -2.77802 16.9079 -7.5373 181.03 38.1657 119.471
lowerback -26.7894 1.54579 9.8327
upperback -21.2247 5.59333 7.62967
thorax -9.51968 4.27641 3.53139
lowerneck -18.4682 -5.62341 -1.75425
upperneck -9.62169 -5.08969 24.2088
head 1.10329 -1.6355 7.54937
rclavicle 1.74931e-014 1.90833e-014
rhumerus 93.4773 -29.5467 -62.8569
rradius 103.061
rwrist -125.641
rhand 3.35459 10.885
rfingers 7.12502
rthumb 28.7993 -16.9131
lclavicle 1.74931e-014 1.90833e-014
lhumerus -41.224 -28.4046 3.24864
lradius 50.5736
lwrist -28.8443
lhand -4.32773 14.0016
lfingers 7.12502
lthumb 21.4392 42.8354
rfemur -60.6194 -36.3485 0.539737
rtibia 43.6212
rfoot -39.2387 -31.3697
rtoes 15.9742
lfemur 18.8937 -4.86849 2.41608
ltibia 60.7382
lfoot 60.0745 23.9102
ltoes 13.1881
671
root -2.78221 16.8917 -7.44606 182.784 36.9389 121.454
lowerback -26.4582 1.45936 9.78341
upperback -21.2348 5.63957 7.58195
thorax -9.67763 4.33707 3.47754
lowerneck -18.876 -4.94705 -1.54372
upperneck -8.62319 -4.51389 22.8627
head 1.30089 -1.28809 7.10736
rclavicle 1.03368e-014 -5.725e-014
rhumerus 94.1218 -30.7012 -65.5168
rradius 104.365
rwrist -126.7
rhand 2.59175 10.9264
rfingers 7.12502
rthumb 28.0704 -16.9934
lclavicle 1.03368e-014 -5.725e-014
lhumerus -40.8653 -27.1584 2.80526
lradius 51.4814
lwrist -28.5063
lhand -4.91558 13.9256
lfingers 7.12502
lthumb 20.8745 42.8226
rfemur -59.8148 -35.5087 0.708342
rtibia 44.1995
rfoot -40.1138 -31.003
rtoes 16.8494
lfemur 18.1744 -4.80142 2.62641
ltibia 60.1773
lfoot 60.6627 22.7123
ltoes 11.6835
672
root -2.79229 16.8446 -7.40702 184.069 36.0072 122.797
lowerback -26.4786 1.38259 9.40866
upperback -21.2703 5.74329 7.58971
thorax -9.72399 4.49008 3.68874
lowerneck -18.4101 -4.14538 -1.19952
upperneck -7.93405 -3.72488 21.1016
head 1.23512 -0.945208 6.52808
rclavicle 9.70069e-014 -1.08139e-013
rhumerus 94.1817 -31.753 -67.6397
rradius 105.339
rwrist -126.846
rhand 2.31155 11.1251
rfingers 7.12502
rthumb 27.8025 -16.8383
lclavicle 9.70069e-014 -1.08139e-013
lhumerus -40.7083 -26.2721 2.77475
lradius 52.3781
lwrist -28.0688
lhand -5.18752 14.2532
lfingers 7.12502
lthumb 20.6132 43.1787
rfemur -59.891 -35.8379 1.43859
rtibia 44.8259
rfoot -38.0138 -31.9975
rtoes 10.5649
lfemur 18.3113 -4.70631 1.65165
ltibia 59.0516
lfoot 60.2158 22.3567
ltoes 10.7216
673
root -2.79559 16.8047 -7.36086 185.737 35.0448 124.868
lowerback -26.6513 1.45054 9.68017
upperback -21.1372 5.86639 7.70197
thorax -9.51539 4.58567 3.69902
lowerneck -18.1081 -3.29621 -0.730371
upperneck -7.29691 -2.87606 19.2061
head 1.18797 -0.574809 5.89429
rclavicle -3.02153e-014 4.13472e-014
rhumerus 94.2162 -33.0709 -69.6327
rradius 105.971
rwrist -126.796
rhand 2.97957 11.2444
rfingers 7.12502
rthumb 28.441 -16.6141
lclavicle -3.02153e-014 4.13472e-014
lhumerus -40.3512 -24.6264 2.71099
lradius 52.889
lwrist -28.1795
lhand -5.47777 14.5488
lfingers 7.12502
lthumb 20.3343 43.5042
rfemur -59.7264 -35.6825 2.51146
rtibia 45.5853
rfoot -37.4954 -32.1445
rtoes 7.69183
lfemur 18.3635 -4.76644 1.24469
ltibia 57.7456
lfoot 59.3633 22.4661
ltoes 10.4764
674
root -2.79846 16.7682 -7.2972 187.293 33.8199 126.848
lowerback -26.6024 1.4641 9.97209
upperback -21.176 5.98191 7.65998
thorax -9.58939 4.65835 3.50322
lowerneck -18.3482 -2.48428 -0.115152
upperneck -5.87883 -2.26542 17.3106
head 1.50321 -0.261161 5.22865
rclavicle -5.725e-014 5.40694e-014
rhumerus 93.5418 -34.6168 -71.277
rradius 106.246
rwrist -127.032
rhand 4.75818 11.2153
rfingers 7.12502
rthumb 30.1393 -16.3467
lclavicle -5.725e-014 5.40694e-014
lhumerus -39.9447 -23.4294 2.60806
lradius 53.5439
lwrist -28.1116
lhand -5.74291 15.0472
lfingers 7.12502
lthumb 20.0795 44.0296
rfemur -59.5705 -35.6899 3.54542
rtibia 46.4078
rfoot -37.3625 -31.867
rtoes 6.45272
lfemur 18.188 -5.05926 0.873405
ltibia 56.2509
lfoot 58.3995 22.6379
ltoes 10.0229
675
root -2.80657 16.739 -7.21224 188.437 32.322 128.202
lowerback -26.5931 1.4082 9.85458
upperback -21.1231 5.96846 7.37253
thorax -9.49739 4.67077 3.24924
lowerneck -18.6115 -1.6257 0.701833
upperneck -4.58585 -1.56686 15.3241
head 1.79606 0.071646 4.51975
rclavicle 1.1609e-013 -9.54166e-015
rhumerus 92.7189 -36.4778 -72.6061
rradius 106.507
rwrist -127.017
rhand 5.44396 11.1626
rfingers 7.12502
rthumb 30.7933 -16.278
lclavicle 1.1609e-013 -9.54166e-015
lhumerus -39.5075 -22.6479 2.63641
lradius 54.4847
lwrist -27.3652
lhand -5.94495 15.5618
lfingers 7.12502
lthumb 19.8853 44.5645
rfemur -59.3004 -35.7481 3.92992
rtibia 47.2205
rfoot -37.5212 -31.5591
rtoes 5.70867
lfemur 17.6219 -5.65188 0.0130037
ltibia 54.7866
lfoot 57.7079 22.9348
ltoes 10.8573
676
root -2.8182 16.7094 -7.11934 189.52 30.8187 129.691
lowerback -26.4889 1.35891 9.7772
upperback -21.0136 5.96964 7.21187
thorax -9.39632 4.6951 3.1088
lowerneck -18.7157 -0.744373 1.61418
upperneck -3.52383 -0.783977 13.1566
head 2.01379 0.405604 3.75263
rclavicle 8.74653e-014 -6.67916e-014
rhumerus 91.3385 -38.4621 -73.2261
rradius 106.881
rwrist -126.698
rhand 4.61403 11.3219
rfingers 7.12502
rthumb 30.0018 -16.2651
lclavicle 8.74653e-014 -6.67916e-014
lhumerus -39.0966 -22.2136 2.99652
lradius 55.3172
lwrist -26.6549
lhand -6.22007 15.9498
lfingers 7.12502
lthumb 19.6208 44.9796
rfemur -58.9295 -35.5244 4.39863
rtibia 48.0576
rfoot -37.7982 -31.4155
rtoes 5.9574
lfemur 17.02 -6.31985 -0.667416
ltibia 53.2725
lfoot 57.0236 22.7215
ltoes 11.376
677
root -2.84525 16.6952 -7.04997 190.562 28.7034 131.256
lowerback -25.8582 1.13675 9.96102
upperback -21.405 5.98529 7.03082
thorax -10.1287 4.70951 2.72797
lowerneck -18.8874 0.0740939 2.30312
upperneck -1.55778 -0.165143 11.2507
head 2.56479 0.687386 3.10691
rclavicle -8.26944e-014 8.5875e-014
rhumerus 88.6555 -40.4941 -72.6301
rradius 107.023
rwrist -126.666
rhand 4.12506 11.4384
rfingers 7.12502
rthumb 29.5351 -16.2321
lclavicle -8.26944e-014 8.5875e-014
lhumerus -38.782 -22.665 3.59051
lradius 56.237
lwrist -26.1634
lhand -6.38563 16.4669
lfingers 7.12502
lthumb 19.4616 45.5129
rfemur -58.4033 -36.6391 5.1844
rtibia 48.8548
rfoot -37.3724 -30.7035
rtoes 5.83288
lfemur 16.4083 -7.58115 -1.44704
ltibia 51.6225
lfoot 55.4718 23.162
ltoes 11.1903
678
root -2.85108 16.6571 -6.96539 191.452 27.3046 132.456
lowerback -26.6621 1.18259 9.96739
upperback -20.8428 5.78338 6.91666
thorax -9.08748 4.62286 2.67446
lowerneck -20.4517 1.08474 2.48884
upperneck 1.10435 0.724318 10.2478
head 3.56457 1.20851 2.88713
rclavicle -1.81292e-013 2.48083e-013
rhumerus 87.1237 -42.4075 -72.8953
rradius 106.91
rwrist -126.755
rhand 3.97193 11.5331
rfingers 7.12502
rthumb 29.3889 -16.1631
lclavicle -1.81292e-013 2.48083e-013
lhumerus -38.7619 -22.0073 4.02999
lradius 57.2375
lwrist -25.6753
lhand -6.57842 16.8834
lfingers 7.12502
lthumb 19.2762 45.948
rfemur -57.9258 -35.7366 5.15554
rtibia 49.6611
rfoot -37.5734 -31.13
rtoes 5.50214
lfemur 15.9167 -8.28014 -2.5077
ltibia 49.8507
lfoot 54.0609 23.4009
ltoes 10.1826
679
root -2.8522 16.632 -6.86481 192.487 25.6095 134.181
lowerback -26.0248 0.967065 10.4002
upperback -21.2283 5.78626 6.95758
thorax -9.84271 4.62226 2.39929
lowerneck -19.1809 2.04498 3.58735
upperneck 2.01103 1.76455 7.96558
head 3.61304 1.55804 2.07121
rclavicle -3.02153e-014 1.33583e-013
rhumerus 83.3224 -44.0643 -71.5689
rradius 106.664
rwrist -127.05
rhand 3.37992 11.49
rfingers 7.12502
rthumb 28.8235 -16.304
lclavicle -3.02153e-014 1.33583e-013
lhumerus -39.2753 -23.653 4.78698
lradius 59.0158
lwrist -24.6671
lhand -6.92148 18.2559
lfingers 7.12502
lthumb 18.9463 47.3532
rfemur -57.1561 -34.7342 5.53347
rtibia 50.4216
rfoot -38.348 -31.4182
rtoes 5.50077
lfemur 15.4619 -9.01233 -2.86258
ltibia 47.9816
lfoot 52.5811 24.1643
ltoes 11.8897
680
root -2.83781 16.6227 -6.75992 193.491 24.0058 135.747
lowerback -25.7352 1.04954 10.4543
upperback -21.1706 5.99107 6.6452
thorax -9.86867 4.72573 2.03929
lowerneck -19.6286 2.83715 5.05062
upperneck 3.2489 2.4428 5.78617
head 4.0744 1.8082 1.24352
rclavicle 4.29375e-014 -8.26944e-014
rhumerus 79.7049 -46.5946 -70.2374
rradius 106.444
rwrist -126.964
rhand 2.77636 11.3014
rfingers 7.12502
rthumb 28.2468 -16.5894
lclavicle 4.29375e-014 -8.26944e-014
lhumerus -37.9299 -22.8964 5.05963
lradius 59.467
lwrist -25.2624
lhand -7.22361 18.4927
lfingers 7.12502
lthumb 18.6558 47.6181
rfemur -56.3707 -33.4706 5.82513
rtibia 51.0739
rfoot -39.6534 -31.4635
rtoes 7.19969
lfemur 14.4319 -9.80793 -3.3228
ltibia 46.2393
lfoot 52.7003 20.5334
ltoes 5.36719
681
root -2.82498 16.6033 -6.64863 194.233 22.5436 136.814
lowerback -25.4238 1.01663 10.1058
upperback -21.217 6.14581 6.33962
thorax -10.0294 4.85407 1.87821
lowerneck -19.9234 3.6888 6.03206
upperneck 4.86752 3.2733 4.25891
head 4.65498 2.16016 0.715759
rclavicle 7.63333e-014 -1.62208e-013
rhumerus 75.0414 -48.775 -68.0463
rradius 106.121
rwrist -126.755
rhand 2.3168 11.4195
rfingers 7.12502
rthumb 27.8075 -16.5431
lclavicle 7.63333e-014 -1.62208e-013
lhumerus -36.9866 -22.6325 5.39114
lradius 60.1295
lwrist -25.6627
lhand -7.62003 18.0352
lfingers 7.12502
lthumb 18.2744 47.1968
rfemur -55.6605 -31.9428 5.62706
rtibia 51.6563
rfoot -40.7224 -32.2434
rtoes 8.82327
lfemur 13.4221 -10.4014 -4.19219
ltibia 44.5237
lfoot 51.6288 18.9819
ltoes 2.55031
682
root -2.80717 16.5885 -6.54954 194.888 20.8502 138.023
lowerback -25.2641 0.826318 10.0587
upperback -21.0499 5.95623 6.46293
thorax -9.92103 4.7963 1.9969
lowerneck -19.52 4.65242 6.15371
upperneck 5.80081 4.56473 3.13182
head 4.91965 2.71198 0.471679
rclavicle -1.11319e-013 1.04958e-013
rhumerus 71.085 -50.5207 -65.7729
rradius 105.319
rwrist -126.955
rhand 1.05461 11.4461
rfingers 7.12502
rthumb 26.6001 -16.7056
lclavicle -1.11319e-013 1.04958e-013
lhumerus -37.3018 -22.6164 6.31664
lradius 61.0507
lwrist -25.9029
lhand -8.39427 18.1897
lfingers 7.12502
lthumb 17.5294 47.4194
rfemur -54.7186 -30.6608 5.62991
rtibia 52.1147
rfoot -41.0183 -31.7547
rtoes 11.9596
lfemur 12.4471 -11.0896 -4.87488
ltibia 42.9458
lfoot 50.239 18.3326
ltoes 0.91696
683
root -2.78989 16.579 -6.45462 195.415 18.9817 139.38
lowerback -24.4943 0.553857 10.1794
upperback -21.3198 5.94264 6.64365
thorax -10.6304 4.82972 2.02205
lowerneck -18.056 5.42274 5.99919
upperneck 6.26451 5.75475 2.29533
head 4.87238 3.2069 0.317032
rclavicle -9.85972e-014 1.39944e-013
rhumerus 65.5042 -52.1397 -61.4714
rradius 104.029
rwrist -127.488
rhand -0.349467 11.5195
rfingers 7.12502
rthumb 25.2556 -16.829
lclavicle -9.85972e-014 1.39944e-013
lhumerus -37.6751 -23.5372 7.43913
lradius 62.1472
lwrist -26.2912
lhand -8.98805 18.2449
lfingers 7.12502
lthumb 16.9579 47.5246
rfemur -53.6275 -29.5948 5.88775
rtibia 52.5027
rfoot -40.7065 -32.5824
rtoes 10.8162
lfemur 11.5003 -11.4539 -5.132
ltibia 41.4455
lfoot 49.5497 16.742
ltoes -1.01041
684
root -2.77046 16.5695 -6.35658 195.968 17.0981 140.787
lowerback -23.1219 0.276139 9.76378
upperback -21.92 6.32782 6.80202
thorax -12.0574 5.1688 2.26366
lowerneck -17.2662 5.9753 5.6661
upperneck 7.39105 6.58304 1.84276
head 5.12198 3.5642 0.303436
rclavicle 9.85972e-014 5.40694e-014
rhumerus 57.7982 -53.9297 -54.4055
rradius 102.391
rwrist -128.032
rhand -1.52751 11.6393
rfingers 7.12502
rthumb 24.1265 -16.8637
lclavicle 9.85972e-014 5.40694e-014
lhumerus -37.0329 -24.4962 8.72358
lradius 62.8575
lwrist -27.108
lhand -9.8092 17.7468
lfingers 7.12502
lthumb 16.1674 47.0925
rfemur -52.6133 -28.3905 6.29867
rtibia 52.8103
rfoot -40.748 -33.0111
rtoes 11.4398
lfemur 10.3777 -11.2575 -5.0386
ltibia 40.1054
lfoot 47.8561 15.9952
ltoes -2.19516
